<?xml version="1.0" encoding="UTF-8" standalone="no"?>
<!-- Created with Inkscape (http://www.inkscape.org/) -->
<svg
   xmlns:dc="http://purl.org/dc/elements/1.1/"
   xmlns:cc="http://creativecommons.org/ns#"
   xmlns:rdf="http://www.w3.org/1999/02/22-rdf-syntax-ns#"
   xmlns:svg="http://www.w3.org/2000/svg"
   xmlns="http://www.w3.org/2000/svg"
   xmlns:sodipodi="http://sodipodi.sourceforge.net/DTD/sodipodi-0.dtd"
   xmlns:inkscape="http://www.inkscape.org/namespaces/inkscape"
   width="140.9761"
   height="62.976101"
   id="svg2"
   sodipodi:version="0.32"
   inkscape:version="0.46"
   sodipodi:docname="fmacj_logo.svg"
   inkscape:output_extension="org.inkscape.output.svg.inkscape"
   version="1.0"
   inkscape:export-filename="/afs/tu-chemnitz.de/home/urz/n/noste/PUBLIC/prog/fmacj/trunk/misc/fmacj_logo.png"
   inkscape:export-xdpi="150"
   inkscape:export-ydpi="150">
  <defs
     id="defs4">
    <inkscape:perspective
       sodipodi:type="inkscape:persp3d"
       inkscape:vp_x="0 : 526.18109 : 1"
       inkscape:vp_y="0 : 1000 : 0"
       inkscape:vp_z="744.09448 : 526.18109 : 1"
       inkscape:persp3d-origin="372.04724 : 350.78739 : 1"
       id="perspective10" />
  </defs>
  <sodipodi:namedview
     id="base"
     pagecolor="#ffffff"
     bordercolor="#666666"
     borderopacity="1.0"
     gridtolerance="10000"
     guidetolerance="10"
     objecttolerance="10"
     inkscape:pageopacity="0.0"
     inkscape:pageshadow="2"
     inkscape:zoom="3.2363641"
     inkscape:cx="76.609892"
     inkscape:cy="37.667825"
     inkscape:document-units="px"
     inkscape:current-layer="layer1"
     showgrid="false"
     inkscape:window-width="1918"
     inkscape:window-height="1166"
     inkscape:window-x="0"
     inkscape:window-y="0" />
  <metadata
     id="metadata7">
    <rdf:RDF>
      <cc:Work
         rdf:about="">
        <dc:format>image/svg+xml</dc:format>
        <dc:type
           rdf:resource="http://purl.org/dc/dcmitype/StillImage" />
      </cc:Work>
    </rdf:RDF>
  </metadata>
  <g
     inkscape:label="Layer 1"
     inkscape:groupmode="layer"
     id="layer1"
     transform="translate(-228.01193,-372.32126)">
    <rect
       y="373.32126"
       x="229.01193"
       height="60.976101"
       width="138.9761"
       id="rect4189"
       style="fill:#ffffff;stroke:none;stroke-width:2;stroke-linecap:butt;stroke-miterlimit:4;stroke-dasharray:none;stroke-dashoffset:0;stroke-opacity:1;fill-opacity:0.72727275" />
    <g
       id="g2710"
       transform="matrix(0.4902998,0,0,1,116.72134,-6.5)">
      <path
         id="path2531"
         d="M 229,416.3125 L 229,420 C 233.84309,420.43401 238.62479,421.29081 243.375,422.3125 C 250.43945,423.92459 257.41603,425.87972 264.40625,427.78125 C 271.77056,429.78846 279.19931,431.64126 286.625,433.40625 C 294.11389,435.26702 301.72673,436.45075 309.40625,437.125 C 317.56293,437.75501 325.73488,437.3078 333.875,436.6875 C 342.45571,435.98487 351.00351,434.8536 359.53125,433.6875 C 368.18146,432.47883 376.78831,431.07338 385.40625,429.65625 C 394.18968,428.17404 402.97564,426.78121 411.78125,425.4375 C 420.83537,424.01506 429.96309,422.9612 439.09375,422.1875 C 448.69836,421.39434 458.31008,421.37412 467.9375,421.5625 C 478.04615,421.81696 488.14566,422.59307 498.21875,423.4375 C 502.98114,423.85362 507.73653,424.25304 512.5,424.65625 L 512.5,421 C 508.44634,420.6557 504.39644,420.3245 500.34375,419.96875 C 490.23129,419.1117 480.08545,418.28667 469.9375,418 C 460.24641,417.78507 450.5468,417.77023 440.875,418.53125 C 431.70008,419.27309 422.56558,420.29977 413.46875,421.71875 C 404.65454,423.05523 395.85235,424.44867 387.0625,425.9375 C 378.46038,427.35641 369.85129,428.77614 361.21875,430 C 352.72725,431.17621 344.23051,432.32648 335.6875,433.0625 C 327.6484,433.71438 319.56342,434.20429 311.5,433.65625 C 303.90902,433.05884 296.36993,431.9487 288.96875,430.125 C 281.56104,428.3763 274.18957,426.52537 266.84375,424.53125 C 259.81956,422.6233 252.80962,420.64986 245.71875,419 C 240.20715,417.79174 234.63803,416.71118 229,416.3125 z"
         style="fill:#d5f6ff;fill-opacity:1;fill-rule:nonzero;stroke:none;stroke-width:1px;stroke-linecap:butt;stroke-linejoin:miter;stroke-opacity:1" />
      <path
         id="path2545"
         d="M 229,426.78125 L 229,430.53125 C 232.47786,431.28254 235.96275,432.07551 239.46875,432.6875 C 245.45617,433.73482 251.49858,434.22432 257.5625,434.53125 C 264.25507,434.84262 270.95016,434.64514 277.625,434.125 C 285.11142,433.5296 292.46464,431.94163 299.71875,430.0625 C 308.21801,427.78159 316.4723,424.75629 324.6875,421.625 C 333.20985,418.30906 341.63093,414.75682 350.0625,411.21875 C 358.09136,407.84672 366.13757,404.51004 374.25,401.34375 C 381.73666,398.37424 389.48535,396.16718 397.3125,394.3125 C 404.68557,392.56343 412.19277,391.73915 419.75,391.4375 C 427.1396,391.21559 434.51193,392.01455 441.8125,393.0625 C 449.11255,394.12557 456.23332,395.98727 463.28125,398.125 C 470.4805,400.40917 477.54917,403.05132 484.625,405.6875 C 491.67516,408.35713 498.73878,411.01052 505.84375,413.53125 C 508.04131,414.31586 510.2798,415.00507 512.5,415.71875 L 512.5,411.71875 C 511.13533,411.26657 509.76181,410.8558 508.40625,410.375 C 501.30709,407.87092 494.25587,405.23543 487.21875,402.5625 C 480.10715,399.90775 472.97808,397.26214 465.75,394.9375 C 458.6174,392.74001 451.42226,390.77761 444.03125,389.65625 C 436.62495,388.55014 429.16,387.69595 421.65625,387.84375 C 413.98025,388.07317 406.34439,388.81211 398.84375,390.53125 C 390.92547,392.34295 383.07711,394.51083 375.5,397.46875 C 367.36394,400.61232 359.29242,403.93717 351.25,407.3125 C 342.83346,410.84266 334.43081,414.43805 325.9375,417.78125 C 317.78759,420.92017 309.61221,423.94999 301.1875,426.28125 C 294.04863,428.20325 286.81883,429.81794 279.4375,430.46875 C 272.84529,431.04479 266.21015,431.29918 259.59375,431.03125 C 253.60387,430.76755 247.63749,430.31131 241.71875,429.3125 C 237.45337,428.59393 233.22001,427.72832 229,426.78125 z"
         style="fill:#d7f4d7;fill-opacity:1;fill-rule:nonzero;stroke:none;stroke-width:1px;stroke-linecap:butt;stroke-linejoin:miter;stroke-opacity:1" />
      <path
         id="path2547"
         d="M 229,380.65625 L 229,384.625 C 233.42517,385.85971 237.85887,387.07237 242.1875,388.625 C 248.73759,390.89325 255.26775,393.18515 261.8125,395.46875 C 269.08721,397.97593 276.39364,400.42508 283.71875,402.78125 C 291.76914,405.32501 299.86194,407.76369 308.125,409.53125 C 316.87533,411.38097 325.68074,413.03061 334.59375,413.875 C 343.51043,414.69366 352.44676,415.26628 361.40625,414.9375 C 369.75862,414.6165 378.09783,413.99029 386.40625,413.0625 C 394.06319,412.2628 401.70888,411.42897 409.34375,410.4375 C 416.01106,409.54762 422.67432,408.58336 429.28125,407.3125 C 434.94278,406.19644 440.59038,404.95963 446.125,403.3125 C 451.63993,401.71942 457.10279,400.01706 462.59375,398.34375 C 468.20693,396.63608 473.85639,394.96177 479.53125,393.46875 C 484.95523,392.07256 490.38333,390.74145 495.9375,389.96875 C 501.09195,389.30124 506.29592,388.81523 511.5,388.96875 C 511.8347,388.97899 512.16521,389.01979 512.5,389.03125 L 512.5,385.5 C 507.53822,385.37653 502.58095,385.73204 497.65625,386.3125 C 492.02003,387.0226 486.50204,388.30496 481,389.6875 C 475.29267,391.15665 469.64042,392.82627 464,394.53125 C 458.51379,396.20001 453.03402,397.91763 447.53125,399.53125 C 442.04916,401.17846 436.48194,402.45716 430.875,403.59375 C 424.31243,404.89049 417.68879,405.87784 411.0625,406.78125 C 403.44803,407.78678 395.79412,408.60167 388.15625,409.40625 C 379.88776,410.32824 371.59241,410.96032 363.28125,411.3125 C 354.40486,411.68303 345.55751,411.18281 336.71875,410.40625 C 327.87669,409.60745 319.12021,407.99489 310.4375,406.1875 C 302.23109,404.46181 294.21299,402.10297 286.21875,399.59375 C 278.90547,397.25525 271.60553,394.80592 264.34375,392.3125 C 257.7972,390.03658 251.26791,387.7372 244.71875,385.46875 C 239.55663,383.62225 234.28884,382.08793 229,380.65625 z"
         style="fill:#ffd5d5;fill-opacity:1;fill-rule:nonzero;stroke:none;stroke-width:1px;stroke-linecap:butt;stroke-linejoin:miter;stroke-opacity:1" />
      <path
         id="path2551"
         d="M 229,411.9375 L 229,415.75 C 231.08326,416.222 233.13157,416.80528 235.25,417.125 C 243.2955,418.24305 251.4042,418.78269 259.53125,418.71875 C 267.72068,418.71288 275.90457,418.58795 284.09375,418.53125 C 293.06202,418.46253 302.03139,418.40647 311,418.4375 C 320.25471,418.46629 329.49975,418.49833 338.75,418.8125 C 347.01755,419.08019 355.28386,419.43803 363.53125,420.09375 C 370.85191,420.67911 378.18835,421.32043 385.4375,422.53125 C 392.45092,423.73769 399.41616,425.21453 406.34375,426.84375 C 413.16473,428.37645 419.97782,429.9587 426.90625,430.9375 C 429.6886,431.27931 430.86291,431.47168 433.65625,431.65625 C 438.19241,431.95599 442.75041,431.81865 447.28125,431.5 C 454.63382,430.91657 461.97083,430.20637 469.3125,429.5 C 476.49399,428.81985 483.69731,428.18812 490.875,427.46875 C 496.37062,426.87176 501.84023,426.20979 507.28125,425.21875 C 509.024,424.90778 510.76104,424.54945 512.5,424.21875 L 512.5,420.8125 C 511.29928,421.04034 510.10877,421.31259 508.90625,421.53125 C 503.51038,422.53557 498.04588,423.2032 492.59375,423.8125 C 485.42894,424.54948 478.26456,425.19967 471.09375,425.875 C 463.75938,426.57768 456.43737,427.27545 449.09375,427.875 C 444.63741,428.20653 440.15393,428.39747 435.6875,428.15625 C 432.89493,428.00544 431.84791,427.84708 429.0625,427.53125 C 422.1912,426.62267 415.44381,425.04606 408.6875,423.53125 C 401.72798,421.90431 394.72625,420.42784 387.6875,419.1875 C 380.3876,417.9318 373.03276,417.23244 365.65625,416.625 C 357.3819,415.94886 349.07681,415.59616 340.78125,415.3125 C 331.51364,414.98507 322.24123,414.91172 312.96875,414.875 C 303.9923,414.84046 295.00737,414.89953 286.03125,414.96875 C 277.8453,415.02585 269.65493,415.13693 261.46875,415.15625 C 253.42861,415.23402 245.40634,414.76165 237.4375,413.71875 C 234.57477,413.31354 231.79993,412.61904 229,411.9375 z"
         style="fill:#f6ffd5;fill-opacity:1;fill-rule:nonzero;stroke:none;stroke-width:1px;stroke-linecap:butt;stroke-linejoin:miter;stroke-opacity:1" />
      <path
         id="path2553"
         d="M 229,406.04024 L 229,402.50899 C 232.44684,403.46403 235.98687,403.74539 239.5625,403.60274 C 244.40802,403.31109 249.11149,402.04279 253.75,400.69649 C 259.02025,399.0714 264.25971,397.38018 269.53125,395.75899 C 273.05315,394.69722 276.60363,393.59026 280.21875,392.88399 C 282.73906,392.39161 283.19444,392.40445 285.75,392.10274 C 291.73002,391.45743 297.68385,392.23135 303.53125,393.44649 C 309.53128,394.81054 315.27223,397.07021 320.96875,399.35274 C 326.11484,401.53947 331.24456,403.68905 336.625,405.22774 C 342.44485,406.8095 348.44859,406.71055 354.40625,406.29024 C 361.23452,405.65398 367.97182,404.25857 374.6875,402.91524 C 381.11664,401.58218 387.55006,400.28295 394.03125,399.22774 C 400.73544,398.18223 407.49193,397.60142 414.25,397.04024 C 421.60008,396.44215 428.95019,395.92918 436.3125,395.50899 C 444.6224,395.07961 452.96312,394.88178 461.28125,394.69649 C 469.65764,394.51821 478.02946,394.38657 486.40625,394.22774 C 494.02516,394.08758 501.63073,393.90985 509.25,393.79024 C 510.33232,393.77245 511.4177,393.82918 512.5,393.82149 L 512.5,397.35274 C 512.08295,397.35729 511.66706,397.31535 511.25,397.32149 C 503.63366,397.43501 496.02214,397.61824 488.40625,397.75899 C 480.03189,397.91938 471.65531,398.08416 463.28125,398.25899 C 454.98317,398.43945 446.666,398.60717 438.375,399.00899 C 431.02733,399.41327 423.67905,399.92028 416.34375,400.50899 C 409.63261,401.05532 402.94381,401.60511 396.28125,402.60274 C 389.81974,403.62316 383.40186,404.91716 377,406.25899 C 370.20911,407.62699 363.3981,409.01126 356.5,409.72774 C 350.34153,410.23555 344.12219,410.44637 338.0625,408.97774 C 335.59424,408.33141 335.09776,408.27865 332.6875,407.44649 C 329.10852,406.21082 325.6632,404.61498 322.15625,403.19649 C 316.55874,400.91967 310.93861,398.66253 305.0625,397.19649 C 299.42753,395.91182 293.70582,394.99444 287.90625,395.50899 C 285.39974,395.75889 285.00736,395.75187 282.53125,396.19649 C 278.96133,396.83751 275.46699,397.90105 272,398.94649 C 266.71892,400.56572 261.4589,402.26501 256.1875,403.91524 C 251.41255,405.33106 246.61053,406.6624 241.625,407.07149 C 237.38555,407.34187 233.105,407.24099 229,406.04024 z"
         style="fill:#e3dbdb;fill-opacity:1;fill-rule:nonzero;stroke:none;stroke-width:1px;stroke-linecap:butt;stroke-linejoin:miter;stroke-opacity:1" />
      <path
         id="path2555"
         d="M 229,421.03125 L 229,424.375 C 232.5427,423.70309 235.69325,422.80688 239.0625,420.59375 C 240.45463,419.74075 241.80294,418.86493 243.1875,418 C 243.65735,417.70648 244.18333,417.45943 244.625,417.125 C 244.90964,416.90947 243.35655,417.81906 243.65625,417.625 C 244.13343,417.31603 244.66466,417.06673 245.15625,416.78125 C 248.48365,415.05244 251.95977,413.73339 255.65625,413.03125 C 260.153,412.16382 264.71661,411.69212 269.28125,411.34375 C 274.51835,410.94049 279.74963,410.61068 285,410.4375 C 290.30598,410.30576 295.65171,410.29116 300.90625,411.15625 C 305.61922,411.99972 310.27042,413.17833 314.6875,415.0625 C 318.92578,416.81089 323.0755,418.72258 327.1875,420.75 C 331.63957,422.89695 336.08557,425.09255 340.5625,427.1875 C 345.58804,429.51724 350.63358,431.81499 355.875,433.625 C 361.57725,435.49634 367.37867,437.06895 373.34375,437.84375 C 379.20049,438.58756 385.09334,439.07207 391,438.65625 C 396.37678,438.22381 401.72114,437.3996 406.90625,435.875 C 412.07251,434.37898 417.1457,432.66536 422.125,430.625 C 427.32203,428.41513 432.40698,425.90881 437.4375,423.34375 C 442.78799,420.65766 448.12374,417.97821 453.46875,415.28125 C 458.48443,412.7208 463.50439,410.1276 468.46875,407.46875 C 472.88802,405.11947 477.29253,402.74584 481.8125,400.59375 C 485.97451,398.67791 490.18487,396.84514 494.59375,395.5625 C 498.85511,394.38401 503.18024,393.48093 507.625,393.46875 C 509.24798,393.45709 510.88083,393.53219 512.5,393.625 L 512.5,390.09375 C 511.52206,390.05017 510.54123,389.9496 509.5625,389.9375 C 504.9669,389.87614 500.46642,390.65961 496.03125,391.78125 C 491.50825,392.99347 487.20054,394.80641 482.9375,396.71875 C 478.36137,398.82555 473.88757,401.20504 469.4375,403.5625 C 464.47829,406.21203 459.50392,408.81107 454.5,411.375 C 449.16346,414.08002 443.81524,416.75223 438.46875,419.4375 C 433.4603,421.97669 428.45691,424.49711 423.3125,426.75 C 418.4203,428.82633 413.36709,430.53106 408.28125,432.0625 C 403.22492,433.6082 398.03393,434.51797 392.78125,435.03125 C 387.01186,435.52591 381.23234,435.11481 375.5,434.4375 C 369.65206,433.72899 363.97342,432.22692 358.375,430.4375 C 353.19256,428.69874 348.20856,426.44147 343.25,424.15625 C 338.77856,422.07476 334.31711,419.92424 329.875,417.78125 C 325.72755,415.74303 321.57427,413.7873 317.3125,412 C 312.78136,410.04109 308.0206,408.75132 303.1875,407.8125 C 297.82117,406.83825 292.3406,406.78588 286.90625,406.875 C 281.62122,407.01606 276.36544,407.32871 271.09375,407.71875 C 266.46686,408.06188 261.8541,408.5222 257.28125,409.3125 C 253.42866,409.97584 249.72086,411.22844 246.1875,412.875 C 242.67427,414.54886 239.51596,416.82518 236.1875,418.8125 C 235.66052,418.87499 235.23792,419.29131 234.75,419.5 C 234.25261,419.71275 233.7621,419.91937 233.25,420.09375 C 231.86621,420.56496 230.42803,420.77816 229,421.03125 z"
         style="fill:#ffe6d5;fill-opacity:1;fill-rule:nonzero;stroke:none;stroke-width:1px;stroke-linecap:butt;stroke-linejoin:miter;stroke-opacity:1" />
    </g>
    <text
       xml:space="preserve"
       style="font-size:40px;font-style:normal;font-variant:normal;font-weight:normal;font-stretch:normal;fill:#000000;fill-opacity:1;stroke:none;stroke-width:1px;stroke-linecap:butt;stroke-linejoin:miter;stroke-opacity:1;font-family:Sans;-inkscape-font-specification:Sans"
       x="236.54686"
       y="414.64914"
       id="text2718"><tspan
         sodipodi:role="line"
         id="tspan2720"
         x="236.54686"
         y="414.64914">FMACJ</tspan></text>
    <text
       xml:space="preserve"
       style="font-size:11.71190071px;font-style:normal;font-variant:normal;font-weight:normal;font-stretch:normal;fill:#000000;fill-opacity:1;stroke:none;stroke-width:1px;stroke-linecap:butt;stroke-linejoin:miter;stroke-opacity:1;font-family:Courier;-inkscape-font-specification:Courier"
       x="239.6411"
       y="423.30521"
       id="text2722"><tspan
         sodipodi:role="line"
         x="239.6411"
         y="423.30521"
         id="tspan2726">Parallelization</tspan></text>
    <rect
       style="fill:none;stroke:#646464;stroke-width:2;stroke-linecap:butt;stroke-miterlimit:4;stroke-dasharray:none;stroke-dashoffset:0;stroke-opacity:1;fill-opacity:0.45075756000000000"
       id="rect2772"
       width="138.9761"
       height="60.976101"
       x="229.01193"
       y="373.32126" />
  </g>
</svg>
