<?xml version="1.0" encoding="UTF-8" standalone="no"?>
<!-- Created with Inkscape (http://www.inkscape.org/) -->
<svg
   xmlns:dc="http://purl.org/dc/elements/1.1/"
   xmlns:cc="http://creativecommons.org/ns#"
   xmlns:rdf="http://www.w3.org/1999/02/22-rdf-syntax-ns#"
   xmlns:svg="http://www.w3.org/2000/svg"
   xmlns="http://www.w3.org/2000/svg"
   xmlns:sodipodi="http://sodipodi.sourceforge.net/DTD/sodipodi-0.dtd"
   xmlns:inkscape="http://www.inkscape.org/namespaces/inkscape"
   width="64"
   height="64"
   id="svg2"
   sodipodi:version="0.32"
   inkscape:version="0.46"
   version="1.0"
   sodipodi:docname="fmacj_icon_new_forkonly.svg"
   inkscape:output_extension="org.inkscape.output.svg.inkscape"
   inkscape:export-filename="/home/noah/prog/fmacj/trunk/website/images/fmacj_icon_new.png"
   inkscape:export-xdpi="202.5"
   inkscape:export-ydpi="202.5">
  <defs
     id="defs4">
    <inkscape:perspective
       sodipodi:type="inkscape:persp3d"
       inkscape:vp_x="0 : 526.18109 : 1"
       inkscape:vp_y="0 : 1000 : 0"
       inkscape:vp_z="744.09448 : 526.18109 : 1"
       inkscape:persp3d-origin="372.04724 : 350.78739 : 1"
       id="perspective10" />
  </defs>
  <sodipodi:namedview
     id="base"
     pagecolor="#ffffff"
     bordercolor="#666666"
     borderopacity="1.0"
     gridtolerance="10000"
     guidetolerance="10"
     objecttolerance="10"
     inkscape:pageopacity="0.0"
     inkscape:pageshadow="2"
     inkscape:zoom="8.6875"
     inkscape:cx="32"
     inkscape:cy="32"
     inkscape:document-units="px"
     inkscape:current-layer="layer1"
     showgrid="false"
     showguides="true"
     inkscape:guide-bbox="true"
     inkscape:window-width="1278"
     inkscape:window-height="766"
     inkscape:window-x="0"
     inkscape:window-y="0" />
  <metadata
     id="metadata7">
    <rdf:RDF>
      <cc:Work
         rdf:about="">
        <dc:format>image/svg+xml</dc:format>
        <dc:type
           rdf:resource="http://purl.org/dc/dcmitype/StillImage" />
      </cc:Work>
    </rdf:RDF>
  </metadata>
  <g
     inkscape:label="Layer 1"
     inkscape:groupmode="layer"
     id="layer1"
     transform="translate(-257,-472.36215)">
    <path
       style="fill:#447821;fill-opacity:1;stroke:none;stroke-width:5;stroke-linecap:round;stroke-linejoin:miter;stroke-miterlimit:4;stroke-opacity:1"
       d="M 269.61903,531.20662 C 268.58829,530.5118 267.68482,530.7838 270.83901,525.27256 C 273.9932,519.76133 281.20507,508.46685 281.62344,506.56689 C 282.46017,502.767 280.88209,499.8161 283.13048,495.29304 C 287.62727,486.24693 288.84865,486.06041 289.49934,485.68386 C 290.15003,485.30731 297.7833,475.86208 297.90735,477.06245 C 298.03139,478.26282 288.97627,490.80929 289.24179,491.97176 C 289.50731,493.13424 301.13207,478.70582 301.63363,479.65516 C 302.1352,480.60449 292.99172,494.73882 293.82389,495.29978 C 294.65605,495.86074 304.32825,482.08284 305.39641,482.19165 C 306.46457,482.30047 297.45053,498.48878 298.62773,498.29884 C 299.80492,498.1089 308.03836,485.00854 309.19761,484.67324 C 310.35686,484.33794 304.18976,495.57907 303.9903,496.24954 C 303.79083,496.92002 304.10087,498.29957 297.41965,505.83554 C 294.07904,509.60353 291.13427,508.68004 287.93664,510.86495 C 286.33782,511.95741 278.57838,522.87219 274.65637,527.85819 C 270.73434,532.8442 270.64975,531.90143 269.61903,531.20662 z"
       id="path2383"
       sodipodi:nodetypes="cssszssssssszssss" />
  </g>
</svg>
